PathFileType	4	(X/Y/Z)	SUBJ51_3_walk_RCNL2025.trc
DataRate	CameraRate	NumFrames	NumMarkers	Units	OrigDataRate	OrigDataStartFrame	OrigNumFrames
100	100	4	25	mm	100	35	275
Frame#	Time	R_Shoulder			L_Shoulder			C7			J_Notch			R_Elbow			L_Elbow			R_Wrist			L_Wrist			R_Asis			L_Asis			Sacral			Thoracic			Sternum			R_Thigh_Lateral			R_Knee_Lateral			R_Shank_Lateral			R_Ankle_Lateral			R_Heel			R_Toe			L_Thigh_Lateral			L_Knee_Lateral			L_Shank_Lateral			L_Ankle_Lateral			L_Heel			L_Toe		
		X1	Y1	Z1	X2	Y2	Z2	X3	Y3	Z3	X4	Y4	Z4	X5	Y5	Z5	X6	Y6	Z6	X7	Y7	Z7	X8	Y8	Z8	X9	Y9	Z9	X10	Y10	Z10	X11	Y11	Z11	X12	Y12	Z12	X13	Y13	Z13	X14	Y14	Z14	X15	Y15	Z15	X16	Y16	Z16	X17	Y17	Z17	X18	Y18	Z18	X19	Y19	Z19	X20	Y20	Z20	X21	Y21	Z21	X22	Y22	Z22	X23	Y23	Z23	X24	Y24	Z24	X25	Y25	Z25
35	0.34000000	-2045.805542	1441.685791	451.367584	-2091.147949	1444.636353	-2.918592	-2138.813965	1565.852661	223.264191	-2007.386353	1437.060547	219.997940	-2041.575439	1166.286743	591.653198	-2255.914062	1154.133423	-60.511646	-1834.632202	997.256165	565.705750	-2285.065552	892.130524	-41.471931	-2046.072144	1007.068970	376.615265	-2012.211060	982.065002	142.440384	-2242.394043	1027.639893	219.297150	-2255.653076	1351.063965	228.319565	-1968.145020	1208.830811	228.128891	-2182.344482	613.715027	436.015350	-2240.084229	498.828644	383.646912	-2338.003418	297.242126	434.419464	-2430.335449	84.455269	309.361267	-2480.228760	88.323975	252.224487	-2278.942139	37.133476	289.145508	-1970.464355	607.777832	17.423759	-1924.183472	503.972687	70.377625	-1869.754395	322.478302	25.199398	-1743.422974	78.781334	123.307587	-1787.387207	62.716648	184.399429	-1591.603149	127.264023	131.085663
36	0.35000000	-2030.048462	1439.838257	449.785370	-2076.106934	1441.667969	-4.277464	-2123.203857	1563.662354	221.602097	-1991.936157	1434.583984	218.606003	-2024.708008	1165.520264	591.231079	-2242.956299	1152.208740	-60.770550	-1816.282043	998.683777	565.272400	-2275.142212	890.528931	-41.476653	-2031.400513	1004.586731	376.401520	-1996.635742	980.232971	142.261719	-2227.070557	1025.616333	218.061646	-2240.330811	1349.062744	227.303192	-1953.707764	1206.276367	227.491089	-2170.521240	612.201172	435.604431	-2229.297607	497.697754	383.340027	-2331.083984	298.045715	434.544189	-2428.844971	87.461136	310.305939	-2478.890137	92.457092	253.514359	-2278.546387	37.175480	289.292358	-1952.797729	607.163696	17.833895	-1907.466187	502.741486	70.785797	-1852.916626	320.911621	26.307016	-1727.145996	77.637268	125.246269	-1771.453857	61.746876	186.204147	-1575.240234	125.745026	134.001053
37	0.36000000	-2014.274414	1438.276123	448.152771	-2060.965088	1438.913086	-5.720421	-2107.538574	1561.708374	219.835007	-1976.393677	1432.408325	217.163010	-2008.180786	1164.887695	590.613586	-2229.437012	1150.294189	-61.173313	-1798.639709	999.814270	564.819794	-2264.366699	888.951294	-41.732538	-2016.409424	1002.168884	376.124390	-1980.798462	978.861938	141.955978	-2211.472656	1023.782349	216.883469	-2224.872559	1347.242920	226.260757	-1938.855713	1204.059326	226.750473	-2158.236328	610.786194	435.171295	-2217.947266	496.612488	383.052582	-2323.621338	299.056580	434.825836	-2427.057373	90.899849	311.573578	-2477.303711	97.164581	255.198334	-2278.041016	37.242035	289.509094	-1934.708496	607.111877	18.350407	-1890.581299	501.813660	71.096893	-1836.842041	319.322906	27.381552	-1713.756836	75.811424	127.189293	-1758.414673	60.545589	188.137970	-1561.448730	122.065262	136.831024
38	0.37000000	-1998.489868	1437.030640	446.472534	-2045.711792	1436.401611	-7.245165	-2091.810791	1560.038940	217.951050	-1960.754272	1430.577759	215.672409	-1992.016968	1164.406616	589.813538	-2215.381836	1148.417114	-61.718494	-1781.712280	1000.651672	564.341400	-2252.713379	887.405060	-42.234619	-2001.075317	999.877991	375.773804	-1964.700439	977.985229	141.528610	-2195.609375	1022.182495	215.793716	-2209.277588	1345.664185	225.173309	-1923.564575	1202.221558	225.920242	-2145.434570	609.476440	434.714325	-2205.967773	495.587097	382.755188	-2315.593262	300.317719	435.230865	-2424.890137	94.818878	313.107208	-2475.354492	102.513504	257.198486	-2277.406494	37.323887	289.787994	-1916.514893	607.479309	18.889332	-1873.684082	501.177063	71.256920	-1821.406006	317.804016	28.333105	-1702.854126	73.477936	128.997162	-1747.914673	59.321655	190.025940	-1549.859131	116.360405	139.572968
